<svg id="Camada_1" data-name="Camada 1" xmlns="http://www.w3.org/2000/svg" xmlns:xlink="http://www.w3.org/1999/xlink" viewBox="0 0 540.66 565.95"><defs><style>.cls-1{fill:none;}.cls-2{clip-path:url(#clip-path);}.cls-3{fill:#3ea635;}.cls-4{fill:#f3f3f4;}.cls-5{fill:#008b3e;}.cls-6{fill:#007436;}.cls-7{fill:#dad9da;}.cls-8{fill:#edf1c9;}.cls-9{fill:#2b2523;}</style><clipPath id="clip-path" transform="translate(-138.9 -13.71)"><rect class="cls-1" width="841.89" height="595.28"/></clipPath></defs><title>UNIFESP_MASCOTE_01</title><g class="cls-2"><path class="cls-3" d="M242.24,70.19s-42.81,29.3-36.63,43.73,41.21,3.89,75.79-14S414.2,52.56,489.3,57.82l49.91-8.7s56.56,29.54,71.67,44.42,53.35,68.23,59.3,106.7,1.37,87.46-3.21,104.41-11.9,35.49-11.9,35.49,4.35,30.45-2.29,48.31A118.47,118.47,0,0,1,634.46,420l-20.38,20.84-.46,29.77,10.54,12.13s23.35,12.37,23.81,13.05,5.49,14,5.49,14l-14.65-5.27-8.24,15.57-6.64-3.89L615.69,535l-7.79-9.16L600.34,521l-14.42,34.57a29.16,29.16,0,0,1-22.67-23.35c-4.12-20.38-3-39.84-10.3-52.66s-14.2-19.24-14.2-19.24l8.7-33.43,11.91-20.37s-2.75-28.4,5.72-48.32A86.85,86.85,0,0,1,588,326.86l-8-15.8,3.89-11.91-9.39-13.28-3.89-13.05-27.48,19L529.37,293l-47.86,3.71s-71,3.39-79.22,27-17.4,38.47-19.46,40.3S357.64,374,357,374s-21.75-17.4-21.75-17.4l3.67-6.87s11.44,5.27,22.44-12.82,16.94-40.53,19.46-56.78-26.1-62-26.1-62-43.28,16.48-70.75,18.09-43.05,5.26-48.32,9.61-15.34,6-18.54-.46-4.12-34.91-4.12-34.91l6.86-18.89-.68-14s-46.94-3.2-60.68-29.76S144.49,84.89,176.3,68.58,250,45.69,259.64,38.13s17.4-6,17.4-6Z" transform="translate(-138.9 -13.71)"/><path class="cls-4" d="M310.48,176.58s23.5-21.07,46.7-27.78l4.58,9.77s4,2.75-1.22,6.41-19.83,9.46-19.83,9.46Z" transform="translate(-138.9 -13.71)"/><path class="cls-4" d="M229,249.09s7.62-8.33,38.84-11.6,61.65-10.66,71.42-14S352,222.07,352,222.07l30.53,39.07-3.29,27.55L370,319.45l-6.8,18.63-14.13,11s-8.31,1.21-8.37,1.2a48.83,48.83,0,0,0-3.87-5.78c-1.64-1.84,9.05-84.57,9.05-84.57L325.13,248s-11.6-.92-14.65-4l-4.73,15.87-16.95-8.55-.61,18.32-18.32-11.9,1.84,20.75-21-16.18,3.89,20.46S235.4,269.71,229,249.09" transform="translate(-138.9 -13.71)"/><path class="cls-4" d="M531.88,204.32c-.68-.42-7.55,10.34-7.78,10.69s5.95,10.42,5.95,10.42L558.22,252h6.64l6.18-3.21,18.31,12.82L584.78,274l-6.87,11-8.36,5.72-7.56,6-9.5,10.26-6.87-14.89s-16.25,2.06-16.25.92-2.06-9.16-2.75-9.16-14.66-.69-14.66-.69L487,293.81c-.69.3-18.09,23.2-16,41.52s4.12,22.9,4.12,22.9l8.93,3.43s2.75-20.84,2.52-21.52S498,324.57,498,324.57l7.32-3.21s-5.72,16-5.95,16.72-3.43,15.79-3.43,15.79l-2.06,16.26.91,10.3s11,1.84,10.53,1.15,2.29-18.55,12.14-27.25,14.88-13.05,14.88-13.05l15.11-2.06s9.16,5.73,17.18-5.49,10.07-14,10.3-16S579.05,306,579.05,306l17.86-15.8s11.91-8,14.65-12.59,9.85-11.91,9.62-15.57,1.6-5.27-1.14-7.33a57.05,57.05,0,0,0-8.48-4.58S606.3,237.56,599.2,233a105.92,105.92,0,0,0-12.13-6.87l3.43-9.84-32.06-31.6a14,14,0,0,0-12.25,4.46c-5.6,5.84-14.31,15.19-14.31,15.19" transform="translate(-138.9 -13.71)"/><path class="cls-4" d="M586.83,553.41,600.35,521l9.21,6.76s5.67,11.66,5.9,9.43,8.47-21,8.47-21l6.64,3.89,8.09-16.86L653,511.78l12.51,19.54s2.14,14.66,2.14,15.57-3,12.21-3,12.21-9.77-4.88-9.77-3.51S653.31,568,653.31,568l-2.44,6.1-23.62-13.43v7.94l-5.68,7Z" transform="translate(-138.9 -13.71)"/><path class="cls-5" d="M446.13,186.1A93.72,93.72,0,0,1,425.87,215s3.9,15.68,4.13,20.72.68,4.58-3,8.24-23.81,19.69-29.77,47.4S378.94,347,365.89,358.91c0,0-16.26-1.37-20.61-6.87l-8.7,1.15v5.72l14,11.91s14.89,2.52,15.12,1.83,16.94-11.68,17.4-12.59,14.65-23.13,14.65-24,14.2-45.57,14.2-45.57,24-28.85,24.73-29.54,19.69-8.7,19.69-8.7,2.51-23.81,2.29-24.5-2.75-20.26-2.75-20.26-4.15-12.83-9.74-21.35" transform="translate(-138.9 -13.71)"/><path class="cls-5" d="M287.81,162.72s-22.49,8.89-24.27,26.41c0,0-18.55,5.16-19.69,7.67s-2.52,10.08,0,16.72,2.06,12.82,18.54,12.13,37.32,5.6,63,.06c0,0-26.56,12.08-38,11.16s-28.85,0-38.24,3.21S226,248.27,226,248.27s-12.6,1.65-12.83-13,1.61-29.39,1.61-31,10.53-15.1,10.53-16.57,13.28-14.76,14-15,15.34-5.49,15.34-5.49Z" transform="translate(-138.9 -13.71)"/><path class="cls-5" d="M202.63,118.1s-8.47-12.88,5-39.9,55.64-35.72,62.74-45.33,1.3,0,1.3,0L267.2,55.3s-16.71,15.12-17.63,15.35S220,85.07,220,85.07s-9.84,9.62-10.53,10.76-9.84,15.46-6.87,22.27" transform="translate(-138.9 -13.71)"/><path class="cls-5" d="M162.17,146.62s23.75,19.34,71.6,16.1c0,0,9.16-6.44,28.85-9.65,0,0,5.12-17.86,36.18-23.81l32.51-15.8-14.19,16-13.28,14.87-30.69,18.73L252.58,168l-26.13,13.09S165.66,166,162.17,146.62" transform="translate(-138.9 -13.71)"/><path class="cls-5" d="M343.86,110.8l19.74,1.06s39.3-10.24,54.95-13.28c0,0,13.91-33.95,22.66-36.86,1.38-.46,38.24,5.26,37.55,5S455.18,80,454,81s-16.49,15.8-16.49,15.8l-20.61,31.14s-52.89-5.73-53.57-5.5-19.51-11.59-19.51-11.59" transform="translate(-138.9 -13.71)"/><path class="cls-5" d="M503.21,90.27s26.16-20.77,44.7-22.37,27.25,2.52,27.25,2.52S536,47.75,535.32,47.75,478.77,64,478.77,64L461.82,74.08l-36.18,40.66-5.26,10.63s29.31,7.78,30,7.78,28.4-8,28.4-8,10.07-9.16,10.53-10.08,9.27-13.86,13.91-24.79" transform="translate(-138.9 -13.71)"/><path class="cls-6" d="M293.75,161.53s39.85-33.64,63.89-39.6l-13.78-8.47L334.75,116,317.8,126.51l-10.3,13Z" transform="translate(-138.9 -13.71)"/><path class="cls-6" d="M399.62,144.59s29.23-2.81,72.05,8.1l-34.58-17L392,122.16l-19.47,5.73Z" transform="translate(-138.9 -13.71)"/><path class="cls-6" d="M372.3,144.36s-7.1,4.13-4.81,11,35.09,7.08,36.89,6.4c0,0-24.3,12.61-44.22,14.67s-25.41,0-25.41,0l20.83-8.7,6.18-5,.92-1.87-5-12.13s9.87-3.45,14.66-4.36" transform="translate(-138.9 -13.71)"/><path class="cls-5" d="M499.45,264.43s-2.6,7.7,16.64,8.39,39.38-14.65,39.38-14.65L523,228.63s-3.23-6.35.92-11.22l12.82,13.51,21.47,22.28,7.61-1.21,6-2.07,18.55,12.6-4.58,10.32-7.78,8s-3.9,5-4.13,4.12-2.51-13.28-2.51-13.28l-17.18,13.39-14.65,7.21h-6.87l-3.43-8.93s-16.11-2-16.93-1.6-29.32,14.93-29.32,14.93L451.75,263l8.93-8.93,17.17,4.58Z" transform="translate(-138.9 -13.71)"/><path class="cls-5" d="M606.53,286.33s-15.39,37.32,4.92,61.86c0,0-16.37-8.74-25.07-24.77s-6.64-18.77,0-23.81,20.15-13.28,20.15-13.28" transform="translate(-138.9 -13.71)"/><path class="cls-5" d="M611.45,348.19s-17.06-.73-26.45,15.07-13.61,61.84-23.4,73.51c0,0-5.67,10.52,4.63,26.78s14.2,28.39,25.19,37.55,25.64,16.26,25.64,16.26l6.71-4.53-4.19,14.37L615,534.76,600.8,520.1l-14.65,34.58s-20.15-6.87-22.9-28.62-9.61-44.42-15.34-54.27-10.3-13.28-7.1-27.47a69.42,69.42,0,0,1,11.45-24.73l7.33-8.93s2.06-39.61,1.83-41S571,347,571.27,345.86s14.88-17.17,14.88-17.17Z" transform="translate(-138.9 -13.71)"/><path class="cls-5" d="M632.4,368.3s4,41.9-8.63,61.36c0,0,15.5-8.24,23.74-28.85s9.62-35.94,9.62-35.94l-2.52-24.05Z" transform="translate(-138.9 -13.71)"/><path class="cls-5" d="M602.75,99.87s47,54.27,51.78,136.24-14.08,119-14.08,119,31.79-28.29,33.62-111S615.46,108.33,601.41,99.87" transform="translate(-138.9 -13.71)"/><path class="cls-7" d="M571.19,221.15s-5.65,6.26,1.07,13.28,16.33,15.88,19.69,16.18,9.47-4.66,16.95-5.84l3.7,5.86A20,20,0,0,0,600,254a57.05,57.05,0,0,0-9.77,8.55s-13.43-8.24-19.23-14.66-12.67-10.07-11.15-18.16,3.06-8.55,11.3-8.55" transform="translate(-138.9 -13.71)"/><path class="cls-7" d="M607.82,252.44s5.65.77,2.29,10.08-18,18.47-21.82,22.59-10.69,13.13-10.69,13.13-6.72.91-7.33.91-9.8-.82-9.8-.82l-8.82,10.29,5.19,8.64s44.66-28.62,44.57-29.4S618.56,268,618.89,267.5s3.59-10.45,3.59-10.45-5.8-6.9-14.66-4.61" transform="translate(-138.9 -13.71)"/><path class="cls-7" d="M499,304.49s-12.44,12.07-14.35,22a192.58,192.58,0,0,1-5,19.69s11.45-13.89,11.45-14.5,8.7-10.23,8.7-10.23Z" transform="translate(-138.9 -13.71)"/><path class="cls-7" d="M524.79,319.3l-11.3,19.08-6.87,15.72-3.51,20s11.57-16.87,11.75-17.09L526,343.57l4.73-3.51Z" transform="translate(-138.9 -13.71)"/><path class="cls-7" d="M534.25,338.08c.15-.46,9.62-17.71,9.62-17.71s6.87,4.12,7.78,3.36,22.15-17.4,22.15-17.4-2.3,11.9-2.3,12.36-5.81,13.54-6.13,14-5,5.5-5.28,5.7-25.84-.3-25.84-.3" transform="translate(-138.9 -13.71)"/><path class="cls-7" d="M612.15,532.82s-4.63-1.5-8.14,5.52.91,12.83,10.23,20.92,13,10.68,13,10.68l-4.92,4.71s-36.64-20.74-36.18-22.26,13.74-32.82,13.74-32.82,10.66,10.44,12.26,13.25" transform="translate(-138.9 -13.71)"/><path class="cls-7" d="M631.48,522.32s-4.5,9.31-4.23,14.65.11,10.53,9.27,18.62a57.38,57.38,0,0,0,18,11l-4.51,7-19.85-11.29c-.51-.29-7.08-11-7.08-11S615.26,536,615.69,535l8.24-18.78Z" transform="translate(-138.9 -13.71)"/><path class="cls-7" d="M646.21,507.74s-7.55,6.18-3.89,11.83,12.06,20,13.59,24,9.61,7.33,9.61,7.33l-4,6.76-8.06-6.3-21.63-31,7-15.8,6.72,3.13" transform="translate(-138.9 -13.71)"/><path class="cls-7" d="M554,204.32s-6.12,1.64-7.83,4.39-5.38,7.4-3.77,10.8,5.07,9,8,9.81,8.24,6.18,8.24,6.18v-4.58l1-7.1,3.8-4.31s-10.67-6.08-9.46-15.19" transform="translate(-138.9 -13.71)"/><path class="cls-7" d="M233.33,259.15c-.22-.41,11.2-13.81,37.08-14s66.86-10.63,76.7-17l-.89-7S327.88,233,311.85,232.52s-60,5.63-66.17,7.62-17.53,9.14-17.53,9.14Z" transform="translate(-138.9 -13.71)"/><path class="cls-8" d="M446.78,186.59s27,18,27.86,63.56l24.81,14.28-34.19-10.38s-1.48-49.05-18.48-67.46" transform="translate(-138.9 -13.71)"/><path class="cls-8" d="M610.88,438.13s-8.47,14.66-7.79,27.71,3.44,18.54,13.74,24,16.26,8.7,16.26,8.7l-3,19.92,8.7-14.42,11.91,5.72v-9.62s-4.58-6.41-5-7.09-20.38-10.77-20.38-10.77L614.54,470s-2.06-16-2.06-16.71-1.6-15.12-1.6-15.12" transform="translate(-138.9 -13.71)"/><path class="cls-8" d="M407.86,216.8s-13.35,12.06-15.42,35.64-11.8,59.85-18.15,70c0,0,9-37.71,8.31-59.92s10.91-40.61,25.26-45.72" transform="translate(-138.9 -13.71)"/><path class="cls-8" d="M294.68,231.63s33.2-9.41,50.6-18.11,42.52-8.4,54.8-.65c0,0-34.42,1.11-51.6,7.75s-43.49,14.25-53.8,11" transform="translate(-138.9 -13.71)"/><path class="cls-8" d="M243.6,189.13,222.78,207v22.07s-.23,17.86,9.16,16.48l-7.33,5.5-10.3-8.47-1.14-10.2V204.32Z" transform="translate(-138.9 -13.71)"/><path class="cls-8" d="M277,176s14.66-7.59,27.71-6.67h0c.23-.23,23.83-22.92,67.55-25,0,0-28.62,7.34-40.76,14.67s-21.29,19-21.29,19Z" transform="translate(-138.9 -13.71)"/><path class="cls-8" d="M228.38,50.19s-55.12,16.94-63.53,50.07,3.06,57.39,3.06,57.39S146.22,141.1,147.45,114s11.6-36,31.14-45.49,49.79-18.32,49.79-18.32" transform="translate(-138.9 -13.71)"/><path class="cls-8" d="M203.22,119s7.73,21.61,70.93-5.87,138-41.82,188.66-39.69l13.13-10.07L468,57.82S349.48,74.31,347.38,74.31s-52.7,18.11-52.7,18.11-61.34,40-91.46,26.53" transform="translate(-138.9 -13.71)"/><path class="cls-8" d="M425.87,128.34s18.77-32,47.24-49.76,0-1.52,0-1.52L524.18,56s-47.63,11.3-48.24,11.3-16.18,8.55-17.1,8.85-17.09,17.71-17.09,17.71l-23.51,28.69Z" transform="translate(-138.9 -13.71)"/><path class="cls-8" d="M455.18,144.36s41.41-1.49,48-54.09c0,0-9.26,22.2-20.25,31.05s-38.77,13.74-38.77,13.74,6.76,8.15,11,9.3" transform="translate(-138.9 -13.71)"/><path class="cls-8" d="M321.92,128.34l18.79-6.18,58.91,22.43L354.4,117.32s-14.34-4.64-19.65-1.34-12.83,12.36-12.83,12.36" transform="translate(-138.9 -13.71)"/><path class="cls-9" d="M653.82,133.2A187.53,187.53,0,0,0,607.19,80c-21.66-17-48-30.43-78.22-40l-.88-.27a4,4,0,0,0-2.05-.09l-.9.21c-.56.13-23.82,7.64-23.82,7.64-34.12-9.2-76.55-6.07-126.12,9.31-41.18,12.77-79.06,31.42-104,44.33-37.56,19.48-52.74,18.45-58.45,16.1a7.76,7.76,0,0,1-4.76-4.81c-1.12-3.48-4.54-14.07,39.62-35.26,39.92-19.17,38.18-54,38.09-55.44l-.52-8.08-5.73,5.73c-15,15-39,22.6-62.27,29.94-38.8,12.26-78.92,24.93-78.32,72.52.5,39.39,23.49,59,42.68,68.49a113.57,113.57,0,0,0,29.88,9.7,24.2,24.2,0,0,0-1.73,9.38V238.1A15.5,15.5,0,0,0,214,248.76c2.19,2.27,6.25,5,13.15,5h.18c3.52,8.33,11.46,22.5,27.2,31.81l5.1,3-1.75-5.66c-.93-3-2.81-9.43-4.2-14.93,4.64,4.78,11.4,10.61,17.82,11.89l3.47.7-.78-3.45a122.63,122.63,0,0,1-2.3-14.14c3.88,3.66,9.93,8.26,16.19,8.62l2.42.13V255.18c4.13,2.58,10.79,6.41,15,7.08l2,.31,4.65-14.87a25.88,25.88,0,0,0,9.38,3c2.74,1.87,14.22,10.6,19.12,18.51-2.21-.56-4.39-1.47-5.26-2.74l-4.25-6.2.07,7.52A34.57,34.57,0,0,0,334,280.49l-6.27-2.75.52,4a27.27,27.27,0,0,0,3.92,10.16L326,289.58l1.24,4.36a50.33,50.33,0,0,0,5,11.27l-9.53-2.56.67,3.57a23.08,23.08,0,0,0,3.57,7.89l-3.18-1-.4,2.67a18.51,18.51,0,0,0,1.31,9.17l-1.69-.51.37,3.44c0,.38.85,7.41,5.16,11.12a43,43,0,0,0,5.06,11.88l-.06.08a13,13,0,0,0-1.86,9.92c.6,2.61,2.35,6.31,7.32,9.14a37,37,0,0,1,3.34,2.42c4.58,3.54,10.85,8.38,19.28,8.38,5.14,0,10.2-1.85,15-5.51,7.11-5.37,12.89-11,18-19.25.91,11.48,3.22,26.25,9,31.72,10.07,9.46,39.68,16.79,39.68,16.79s7,12.52,17.1,18.62c0,0,3.66,14.05,0,20.76s-18.62,9.16-19.84,13.74l-1.22,4.58s-10.38,11.3-9.16,21.37l7.32-2.14s-2.13,6.11-.3,11.91l14-6.72s-2.44,5.5-.3,9.16l22-10.68s11.6-4.28,13.43-11.91-1-20.45,3.15-27.47,11.12-10.38,5.82-24.12-9.58-11.6-8.36-26.26c.84-10,2.76-17.49,3.17-23.05,0,1.62.09,3.27.21,4.94l.47,6.82h16.64l1.52-5.33c.06-.21,6-20.45,19.73-30.74l.47.79,4.64-.48,23.7-2.43c3.49-.29,7.19-3,12.54-9.23a69.12,69.12,0,0,0,9.63-15.44,69.17,69.17,0,0,0,3.22,6.29c-7,5.62-17.52,16.28-22.62,32-3.5,10.8-3.23,21.33-3,30.62.27,10.53.48,18.84-4.28,24.73-12,14.87-16.33,24-15.69,33.43l-.59,13.91-.14,3.37,2.46,2.3c.07.06,8,7.58,11.54,17.58,4.79,13.34,7.74,26.42,7.51,33.3-.31,9.32,2.83,25.8,12.78,33,6.06,4.41,10.38,6.29,14.44,6.29a12.12,12.12,0,0,0,2.57-.27l31.48,18.77,5.1,3,4-4.37c1.11-1.2,2.92-3.91,3.43-9.12l14.27,8.6,7.7,4.63,3-8.47a42.79,42.79,0,0,0,1.95-10.86l5.75,3.6,3.86-6.32c.55-.91,12.72-21.67-12.86-48.56a15.21,15.21,0,0,0-.36-6.34c-1.41-5.22-5.38-9.46-11.8-12.59-12.58-6.14-25.23-17.4-26.43-21.12l0-.75c-.77-18.14-.19-24.45.47-26.48.87-1.12,3.75-3.85,6.09-6.08,9-8.6,22.71-21.61,29.78-37.34,9-20.1,7.65-50.69,7.15-58.17,2.89-8.23,15.75-47.4,18.82-99.49,1.27-21.57-.35-64.19-25.43-107.23M156,130.79C150.36,88.64,175.24,73.46,180,71c11.72-5.84,25.45-10.18,39.47-14.61C236,51.14,252.9,45.78,267.16,37.66c-4.74,6.92-14.11,17.39-32.16,28.83-19,12-27.69,24.76-31.62,33.07a18.86,18.86,0,0,0-3.13,9.22h0a16.6,16.6,0,0,0,.8,6,14.91,14.91,0,0,0,9,9.34c10.35,4.26,27.55,1,51.2-9.83h0q6.39-2.91,13.39-6.54c2.6-1.35,5.59-2.9,8.92-4.6,32.39-14.43,97.93-37.53,182.33-35.67A174.83,174.83,0,0,0,445.24,84a153.57,153.57,0,0,0-29.38,37.73,150.23,150.23,0,0,0-35.1-4.15,139.18,139.18,0,0,0-17.57,1.1c-7.24-3.61-18.23-8.59-23.74-8.59a9.93,9.93,0,0,0-3.46.59l-.58.22-.54.31c-.88.52-21.22,12.49-30,26.05-11.28,1.17-21.93,8-27,15.39-2.5,3.62-4.68,6.46-6.32,8.5-2.95.37-6.21.68-9.88,1l-.25,0-.26,0c-1.58.25-13.86,2.37-23.63,9.66-21.53,0-76.48-3.81-81.47-41.11M339.32,235.72l-7.25-3.32-9.77,13.76a22,22,0,0,1-10.16-3.78l-2.6-2-5.25,16.82c-4.68-1.63-12-6.27-14.81-8.17l-3.58-2.44v20c-7.46-2.07-14.62-10.92-14.7-11L267.49,251l-.36,5.93c-.32,5.22.89,12.73,1.75,17.29-8.45-4.05-17.24-15.43-17.34-15.56l-4.72-6.17.62,7.74c.3,3.75,2.57,12.15,4.24,18-11-8.31-17.08-19.2-20-26,4.64-3.3,18.23-11.31,29-11.31.39,0,.78,0,1.16,0,1.72.09,3.63.14,5.67.14,19.05,0,50.28-4.2,74.37-13.42-1.07,2.94-2,6-2.55,8.09m13.19,100.63a43.6,43.6,0,0,1-7-8.82c4.29.14,11.28.05,15.85-1.75l3-1.19-7.79-8.84c3.83-.66,9.27-2,12.65-4.66l1.6-1.26c-3.22,11.17-7.67,21.05-13.95,27.22-6.72,6.61-10.85,9.48-13.11,10.73l-3.08-5.61a24.08,24.08,0,0,0,11.17-2.11l3-1.42ZM376.34,283c-.4,2.9-.86,5.83-1.38,8.76l-.26-.14c-1.35-.75-4.29-2.48-6.68-4.14a33.57,33.57,0,0,0,8.32-4.48m-1.66-12.74,3.33-1.35c-.16,1.56-.32,3.16-.5,4.78Zm-.52,25.85c-.88,4.47-1.91,8.89-3.11,13.13l-1.55-1.57a45,45,0,0,1-5.4-6.79c3-1.07,7.47-2.89,10.06-4.77m103.23,54.5A8.13,8.13,0,0,1,475.3,346a84,84,0,0,1-.25-10.61c0-.17,0-.34,0-.51,0-.49.06-1,.09-1.44s0-.78.08-1.17l.06-.57c1.1-10.75,5.5-18.74,8.89-25.44.21-.28.42-.54.61-.77h11c-5.66,7-17.83,24.44-17.91,45.53Zm28.92-52.83.3,19.12-4.13,1-.64-17h-15.1l0-.21a9.39,9.39,0,0,0,.59-2.77l.54-.24v.09Zm3.61-4.58H497.87l16.34-7.33h9.31Zm21.22,2.95,11.81-.36-11.87,10.49-10.87-1.53Zm-49.71,46.17c2.62-15.6,11.36-28.46,16.09-34.48L498,320a43.91,43.91,0,0,0-16.55,22.31m8.67,26.43a10.94,10.94,0,0,0-.63-3,68.68,68.68,0,0,0-3.23-6.76l.37-6.57a37.81,37.81,0,0,1,13-24.5,102.5,102.5,0,0,0-9.51,40.8m9.51,7.78-2,.24c-2-28.69,10.48-50.45,15.11-57.44l9.79,1.36c-5.77,8.13-20.3,30.77-22.91,55.84M506.12,366c4.54-18.43,14.56-34.52,19.49-41.67l3.6,14.69c-11.52,6.23-18.93,18.18-23.09,27m27-30.17-4.63-18.91-14.1-2v-5.63l.81-.63,14.9,2.09L536.64,329Zm33.55-14c-3.44,7.1-10.19,12.25-10.19,12.25l-18.23,1.78,2.84-5.55,4.25-6.4,2.78,7.14,12-8.53-.77-2.64,11.06-8a49.75,49.75,0,0,1-3.7,9.95m-12.58-19.89-2.7-9.26h0l-.06-.2a2.25,2.25,0,0,0-1-1.12,105.34,105.34,0,0,0,19-14.2,82.79,82.79,0,0,0,1.36,9.47c-5.48,3.78-8,7.05-9.08,9l-2.42-.19-.75,1c-1.9,2.37-3.34,4.18-4.42,5.58m1.32,4.56h0M558,315.2l-2.25-7.75c1-1.35,3.31-4.38,5.63-7.29l15.71,1.24Zm22.71-18.11L567,296a31,31,0,0,1,6.56-5.74,3,3,0,0,0,1.31,0,3.21,3.21,0,0,0,2.46-2.55c5.9-4.54,9.22-11.31,11.93-16.86a37.1,37.1,0,0,1,3.53-6.32l1.73-2.14-.4-.21c1.84-2.69,6.69-7.69,17.69-8.9,1.15.31,5.12,1.54,7.08,4.36l.06.11c-.66,6.16-6.52,14.82-17.11,22.05a187.25,187.25,0,0,0-21.15,17.29m.56-71.36c.21.08,19.48,7.68,27.36,23.37a30.29,30.29,0,0,0-13.78,5.78c-.53-4.68-2.68-11.94-10.15-18.68a32.77,32.77,0,0,0-23.08-8.72,7.56,7.56,0,0,1,1.88-3.46c3.25-3.45,12-.73,16.31,1.06v.08Zm-.16-12.18,4.27,3.75s.94,1.47-1.28,4.47a43.66,43.66,0,0,0-3-8.22m-17.26,5c-5.67-3.42-7.52-10.2-8.08-13.27a28,28,0,0,1,9.41-1.58h.06c6.18,0,11.34,10.17,13.49,16.08-4.1-1.43-10.19-2.91-14.88-1.23m-6.72,14.29a32.73,32.73,0,0,1-5.85-4.58c-7.38-7-8.28-9.5-5.32-14.73a18,18,0,0,1,5.57-6.09c.86,3.79,3,9.88,8.27,13.89a12.93,12.93,0,0,0-2.67,11.51M542,211.25c-4.94,8.71-.57,13.91,6.14,20.3,5.56,5.29,9.47,6.81,11.47,7.23a67.11,67.11,0,0,0,7.92,9.4h0a5.58,5.58,0,0,1-7.89.4l-31.16-28.16a5.6,5.6,0,0,1-.4-7.89l21.07-23.31c1.81-.4,4.3-.18,7.06,2.31,1.65,1.48,4.85,4.31,8.54,7.57-10.5.22-18.36,4.41-22.74,12.14m20.89,24.2a13.74,13.74,0,0,1-1.48-5.19,30.18,30.18,0,0,1,21.46,8c8.16,7.35,9.36,15.27,9.41,19a21.1,21.1,0,0,0-2.11,2.68c-5.17-3.12-19.27-12.33-27.28-24.48m60.25,334.87-33.34-19.88,11.49-26.8c15.66,12.26,23.24,37,23.32,37.27l.06,0c.56,7.16-1.53,9.43-1.53,9.43M650,568.49,627.3,554.85a106.27,106.27,0,0,0-9.07-18.46l7.49-16.71c14.56,10.93,25.42,33.09,25.67,33.61a38.89,38.89,0,0,1-1.44,15.2m.69-54.24c21.5,22.93,11.53,39.28,11.53,39.28l-8.1-5.06c-3-5.71-10.57-18.72-20.6-28.21l6.07-12.78c3.16,1.81,8.07,4.87,11.1,6.77m12-209.34c-2.8,12.24-5.58,21.71-7.42,27.51-2,3.36-24,39.79-37.75,48.59,0,0,23-9.16,36-32,.19,12-.58,32.13-6.85,46.11-9.47,21.06-33.28,38.16-35.72,43s-1.53,23.82-1.22,31.14,18,21.07,30.52,27.17c7.45,3.64,8.52,8,8.17,11-3.39-2.09-7.05-4.29-8.82-5.17l-2.09-1.05-7.55,15.92Q628,515.6,626,514.29l-2.25-1.46-8.55,19.09a55.38,55.38,0,0,0-13.68-13.72l-2.29-1.54-14.61,34.07c-2.33-.26-5.39-1.86-9.48-4.83-6.72-4.89-10.08-17.71-9.77-26.87s-3.66-24.11-7.94-36S544,462.56,544,462.56l.61-14.35c-.61-7,2.44-14.35,14-28.7l0,0c.71,4.41,1.7,10.33,3.08,18.36,0,0,2.54-30.09,2.34-29.49,0,0-2.26-30,3.1-46.54,4.68-14.44,14.64-24.14,20.77-29,4.22,5.08,12.8,13.72,23.46,15.38,0,0-14.5-10.69-21.14-22.54a107.47,107.47,0,0,1-6.09-12.49l.66-5.83c3-2,16.33-10.85,25-20,9.14-9.69,16.84-26.49,12.81-32.3-2.52-3.63-6.89-5.34-9-6-4.53-10.55-13.49-17.88-20.58-22.32l1-1.14a10.18,10.18,0,0,0-.73-14.36l-31.16-28.16a10.17,10.17,0,0,0-14.36.73l-23.2,25.68a10.18,10.18,0,0,0,.72,14.36L556.51,252a10.16,10.16,0,0,0,14.28-.65,112.59,112.59,0,0,0,16.93,12.5c-.85,1.45-1.67,3.14-2.58,5-2.15,4.4-4.72,9.62-8.62,13.49a67.22,67.22,0,0,1-.91-12.83,3.21,3.21,0,0,0-5.65-2.26c-12.47,14.79-31.91,23.35-32.1,23.44a3,3,0,0,0-1,.72l-3.46.1-.53-10.21H513.23l-27.05,12.13c-.58-.24-1.16-.51-1.76-.81h0c-3.8-3.28-6.6-6.75-14.34-15.54a49.37,49.37,0,0,0-3.74-4.21l0,0a44.8,44.8,0,0,0-7.48-6.9c3.68-1.71,6.88-3.7,8.84-5.93l31.78,4.43L469.71,252.8c-1.28-39.08-13.94-57.08-20.17-63.62a19,19,0,0,0-2.76-2.59c-.42-.34-.65-.49-.65-.49s11.8,31.77,4.24,57.87c0,0-.46,4.35-5.95,5.27s-36.63,15.34-41.9,42.58S384,349.75,373.44,361s-16.71,5-22.67,2.75-11.6-4-11.29-8.62c0,0,.52.93,2.3.93,2.77,0,8.6-2.25,20.29-13.76,19.23-18.92,22.9-65.33,24.73-91s21.06-34.5,21.06-34.5C398.44,211.24,390,209,381.64,209c-12.79,0-25.5,5.16-41.55,11.43-24,9.37-54.89,13.27-72.59,13.27-1.91,0-3.68,0-5.26-.14-.52,0-1.05,0-1.57,0-15.78,0-33.47,12.82-33.54,12.86h0c-10.38,0-10.07-8.24-10.07-8.24v-28.7a20.22,20.22,0,0,1,.22-3.05l26.95-17.71-17.36,6.14c2.95-3.07,4.94-7,11.25-13.77,8.55-9.16,24.12-11.6,24.12-11.6,24.88-2.14,34.19-4.58,48.39-27.63,7.66-12.44,27.93-24.27,27.93-24.27a2.54,2.54,0,0,1,.89-.13c4.46,0,17.76,6.48,21.48,8.34l38.69,18.8-19.57-13.87c5.81.29,23.38,1.3,37.08,3.64h0l54.53,18.33-22.91-13.41c21.2-1.33,47.46-13.37,54.45-49-11.86,23.23-29.36,35.77-52,37.26a76.65,76.65,0,0,1-28.08-3.68C435.24,102.34,451.72,86.46,468,74.9c.78-.3,41.43-15.87,59-17.69,0,0,78.16,13.43,125.48,111.74,0,0,23.48,65.27,10.22,136" transform="translate(-138.9 -13.71)"/><path class="cls-9" d="M364.27,163.87c1.57-3.15-1.49-9.91-4.47-15.21q5.79-2.22,12.5-4.3s-40,3.06-63.38,29.17C288,172.21,277.53,175.83,277,176c0,0,14.65,3.1,39.78,4.68,58.53,3.68,87.56-18.92,87.56-18.92-15.15,7-37.2,11.72-58.29,13.06,8.74-3.74,16.9-8.41,18.18-10.95m-46.5,10.46c5.07-5.47,16.27-15.14,37.72-24,2.91,5.16,5,10.12,4.69,11.42-2,2.54-18.5,10.85-28.64,13.4-4.78-.08-9.41-.36-13.77-.86" transform="translate(-138.9 -13.71)"/><path class="cls-9" d="M353.39,199.27c-27.14,14-61,20.18-61.33,20.24,0,0,35.66-1.83,63.43-16.17,26.17-13.52,40.16-13,40.16-13-.55-.24-13.84-5.74-42.26,8.94" transform="translate(-138.9 -13.71)"/><path class="cls-9" d="M264.11,187.76c-.34,0-5.84.8-4.47,5.27s4.13,4.12,1,9.84-10,7.56-10,7.56,8.24,0,16.71-8.24,2.75-14.77-3.32-14.43" transform="translate(-138.9 -13.71)"/><path class="cls-9" d="M565.77,207.45a3.78,3.78,0,1,0,3.78,3.78,3.78,3.78,0,0,0-3.78-3.78" transform="translate(-138.9 -13.71)"/></g></svg>