<svg id="Camada_1" data-name="Camada 1" xmlns="http://www.w3.org/2000/svg" viewBox="0 0 544.98 193.78"><defs><style>.cls-1{fill:#2b2523;}.cls-2{fill:#f3f3f4;}.cls-3{fill:#3ea635;}</style></defs><title>tipografia</title><path class="cls-1" d="M670.22,236.3H602.85v10.37L592.48,236.3H556.43l-10.37,10.37V236.3H147.16v42.28h9.4v53.3l21.92,21.92h36.05L234.3,334V353.8H440.12V316.19h9.4V288h16.66v23.55h-9.41V353.8h89.29V343.43l10.37,10.37h36.05l10.37-10.36V353.8h61.08V316.19h6.29l21.92-21.92v-36Zm-58,51.68v5.68L606.47,288Zm-77.74,14.14h-7.25V288h7.25v6.29l7.85,7.85Zm-152-23.54h5.91v32.95h-5.91Zm-146.08,0h7.26v32.95h-7.26Zm96.54,0h7.26v32.95H333Z" transform="translate(-147.16 -200.6)"/><path class="cls-2" d="M181.72,346l-17.33-17.34V270.76H155V244.13H238v26.63h-9.4v57.88L211.29,346ZM202,270.76H191v48.59h11Z" transform="translate(-147.16 -200.6)"/><path class="cls-2" d="M300.09,346l-12.53-23.87V346H242.13V319.35h9.4V270.76h-9.4V244.13h34.48L289.14,268V244.13h45.43v26.63h-9.4V346Zm-14-26.63-7.95-15.15v15.15Zm12.43-33.45V270.76h-8Z" transform="translate(-147.16 -200.6)"/><polygon class="cls-2" points="191.51 145.38 191.51 118.75 200.91 118.75 200.91 70.16 191.51 70.16 191.51 43.53 235.6 43.53 235.6 70.16 227.54 70.16 227.54 118.75 235.6 118.75 235.6 145.38 191.51 145.38"/><polygon class="cls-2" points="239.7 145.38 239.7 118.75 249.1 118.75 249.1 70.16 239.7 70.16 239.7 43.53 313.34 43.53 313.34 79.56 286.71 79.56 286.71 70.16 275.73 70.16 275.73 81.14 294.54 81.14 294.54 107.77 275.73 107.77 275.73 118.75 285.13 118.75 285.13 145.38 239.7 145.38"/><polygon class="cls-2" points="317.44 145.38 317.44 118.75 326.84 118.75 326.84 70.16 317.44 70.16 317.44 43.53 391.08 43.53 391.08 79.56 364.45 79.56 364.45 70.16 353.47 70.16 353.47 81.14 372.28 81.14 372.28 107.77 353.47 107.77 353.47 118.75 364.45 118.75 364.45 109.35 391.08 109.35 391.08 145.38 317.44 145.38"/><polygon class="cls-2" points="412.51 145.38 395.18 128.05 395.18 109.35 421.81 109.35 421.81 118.75 432.79 118.75 432.79 107.77 412.51 107.77 395.18 90.44 395.18 60.87 412.51 43.53 442.08 43.53 459.42 60.87 459.42 79.56 432.79 79.56 432.79 70.16 421.81 70.16 421.81 81.14 441.79 81.14 459.42 98.46 459.42 128.05 442.08 145.38 412.51 145.38"/><path class="cls-2" d="M610.67,346V319.35h9.41V270.76h-9.41V244.13H667l17.34,17.33V291L667,308.37H646.71v11h9.4V346Zm47-75.22h-11v11h11Z" transform="translate(-147.16 -200.6)"/><polygon class="cls-3" points="11.73 47.44 48 47.44 48 66.25 39.94 66.25 39.94 122.67 58.75 122.67 58.75 66.25 50.69 66.25 50.69 47.44 86.96 47.44 86.96 66.25 77.56 66.25 77.56 126.43 62.51 141.47 36.18 141.47 21.14 126.43 21.14 66.25 11.73 66.25 11.73 47.44"/><polygon class="cls-3" points="98.88 141.47 98.88 122.67 108.28 122.67 108.28 66.25 98.88 66.25 98.88 47.44 127.09 47.44 155.29 101.17 155.29 66.25 145.89 66.25 145.89 47.44 183.5 47.44 183.5 66.25 174.1 66.25 174.1 141.47 155.29 141.47 127.09 87.74 127.09 122.67 136.49 122.67 136.49 141.47 98.88 141.47"/><polygon class="cls-3" points="195.42 141.47 195.42 122.67 204.82 122.67 204.82 66.25 195.42 66.25 195.42 47.44 231.69 47.44 231.69 66.25 223.63 66.25 223.63 122.67 231.69 122.67 231.69 141.47 195.42 141.47"/><polygon class="cls-3" points="243.61 141.47 243.61 122.67 253.01 122.67 253.01 66.25 243.61 66.25 243.61 47.44 309.43 47.44 309.43 75.65 290.62 75.65 290.62 66.25 271.82 66.25 271.82 85.05 290.62 85.05 290.62 103.86 271.82 103.86 271.82 122.67 281.22 122.67 281.22 141.47 243.61 141.47"/><polygon class="cls-3" points="321.35 141.47 321.35 122.67 330.75 122.67 330.75 66.25 321.35 66.25 321.35 47.44 387.17 47.44 387.17 75.65 368.36 75.65 368.36 66.25 349.56 66.25 349.56 85.05 368.36 85.05 368.36 103.86 349.56 103.86 349.56 122.67 368.36 122.67 368.36 113.26 387.17 113.26 387.17 141.47 321.35 141.47"/><polygon class="cls-3" points="399.09 113.26 417.89 113.26 417.89 122.67 436.7 122.67 436.7 103.86 414.13 103.86 399.09 88.81 399.09 62.49 414.13 47.44 440.46 47.44 455.51 62.49 455.51 75.65 436.7 75.65 436.7 66.25 417.89 66.25 417.89 85.06 440.19 85.06 455.51 100.1 455.51 126.43 440.46 141.47 414.13 141.47 399.09 126.43 399.09 113.26"/><path class="cls-3" d="M614.59,342.07V323.26H624V266.84h-9.4V248h50.77l15,15v26.33l-15,15H642.79v18.8h9.41v18.81Zm28.2-56.42H661.6V266.84H642.79Z" transform="translate(-147.16 -200.6)"/><polygon class="cls-1" points="304.53 0 288.24 0 282.33 23.63 277.92 23.63 269.59 23.63 269.59 19.21 272.55 19.21 272.55 0 247.43 0 247.43 19.21 250.39 19.21 250.39 20.68 238.57 20.68 238.57 23.63 233.2 23.63 228.79 23.63 222.88 0 206.59 0 200.68 23.63 196.27 23.63 190.9 23.63 186.49 23.63 180.58 0 164.29 0 158.38 23.63 153.97 23.63 148.6 23.63 144.19 23.63 138.28 0 121.99 0 116.08 23.63 111.67 23.63 111.67 42.84 141.68 42.84 148.6 42.84 153.97 42.84 160.89 42.84 183.98 42.84 190.9 42.84 196.27 42.84 203.19 42.84 226.28 42.84 233.2 42.84 245.49 42.84 245.49 41.14 247.19 42.84 260.97 42.84 265.63 38.18 265.63 42.84 277.92 42.84 284.84 42.84 326.08 42.84 326.08 23.63 310.44 23.63 304.53 0"/><polygon class="cls-1" points="410.42 0 403.92 5.49 398.43 0 384.65 0 379.48 5.16 374.32 0 360.54 0 355.38 5.16 350.22 0 336.44 0 327.81 8.62 327.81 42.84 358.84 42.84 358.84 41.14 360.54 42.84 374.32 42.84 379.48 37.68 384.65 42.84 398.43 42.84 400.13 41.14 400.13 42.84 431.15 42.84 431.15 26.16 431.22 8.28 422.59 0 410.42 0"/><path class="cls-2" d="M265.48,236.79v-5.91h2.95l5.91-23.63h5.91l5.9,23.63h3v5.91h-11.4v-5.91h2.54l-.74-3h-4.43l-.74,3h2.53v5.91Zm11.81-17.73-.74,3H278Z" transform="translate(-147.16 -200.6)"/><rect class="cls-2" x="148.33" y="30.28" width="5.91" height="5.91"/><path class="cls-2" d="M307.78,236.79v-5.91h3l5.91-23.63h5.91l5.91,23.63h3v5.91H320v-5.91h2.53l-.74-3h-4.43l-.74,3h2.53v5.91Zm11.81-17.73-.73,3h1.47Z" transform="translate(-147.16 -200.6)"/><rect class="cls-2" x="190.63" y="30.28" width="5.91" height="5.91"/><path class="cls-2" d="M350.08,236.79v-5.91H353l5.91-23.63h5.91l5.91,23.63h2.95v5.91H362.32v-5.91h2.53l-.74-3h-4.43l-.74,3h2.53v5.91Zm11.82-17.73-.74,3h1.47Z" transform="translate(-147.16 -200.6)"/><rect class="cls-2" x="232.93" y="30.28" width="5.91" height="5.91"/><polygon class="cls-2" points="251.13 27.33 251.13 30.28 257.04 30.28 257.04 12.56 254.08 12.56 254.08 6.65 265.9 6.65 265.9 12.56 262.94 12.56 262.94 31.46 258.22 36.19 249.95 36.19 245.22 31.46 245.22 27.33 251.13 27.33"/><rect class="cls-2" x="272.28" y="30.28" width="5.91" height="5.91"/><rect class="cls-2" x="314.91" y="30.28" width="5.91" height="5.91"/><path class="cls-2" d="M431.73,236.79v-5.91h2.95l5.91-23.63h5.91l5.91,23.63h2.95v5.91H444v-5.91h2.53l-.74-3h-4.43l-.74,3h2.53v5.91Zm11.81-17.73-.73,3h1.47Z" transform="translate(-147.16 -200.6)"/><polygon class="cls-2" points="334.46 36.19 334.46 23.19 339.19 18.47 346.28 18.47 346.28 12.56 340.37 12.56 340.37 15.51 334.46 15.51 334.46 11.38 339.19 6.65 347.46 6.65 352.19 11.38 352.19 19.65 347.46 24.37 340.37 24.37 340.37 30.28 346.28 30.28 346.28 27.33 352.19 27.33 352.19 36.19 334.46 36.19"/><path class="cls-2" d="M510.46,236.79l-4.73-4.73V212l4.73-4.72h8.27l4.72,4.72v20.09l-4.72,4.73Zm1.18-5.91h5.91V213.15h-5.91Z" transform="translate(-147.16 -200.6)"/><path class="cls-2" d="M534.56,236.79l-4.73-4.73V212l4.73-4.72h8.27l4.73,4.72v20.09l-4.73,4.73Zm1.18-5.91h5.91V213.15h-5.91Z" transform="translate(-147.16 -200.6)"/><path class="cls-2" d="M571.66,220.24,569.89,222l1.77,1.77v8.27l-4.72,4.73h-8.27l-4.73-4.73v-8.27l1.77-1.77-1.77-1.78V212l4.73-4.72h8.27l4.72,4.72Zm-11.81-1.18h5.91v-5.91h-5.91Zm0,11.82h5.91V225h-5.91Z" transform="translate(-147.16 -200.6)"/><polygon class="cls-1" points="89 145.84 80.05 154.81 77.81 145.84 60.49 145.84 58.26 154.81 49.3 145.84 34.09 145.84 24.65 155.28 24.65 184.34 34.09 193.78 48.51 193.78 49.3 193.78 89 193.78 89.79 193.78 104.21 193.78 113.65 184.34 113.65 155.28 104.21 145.84 89 145.84"/><polygon class="cls-1" points="203.25 146.93 202.17 145.84 186.96 145.84 181.71 151.11 176.44 145.84 161.24 145.84 160.15 146.93 160.15 145.84 139.93 145.84 139.93 170.09 126.08 170.09 126.08 184.34 135.51 193.78 150.72 193.78 155.98 188.52 161.24 193.78 176.44 193.78 181.71 188.52 186.96 193.78 202.17 193.78 203.25 192.69 203.25 193.78 237.33 193.78 237.33 173.55 233.87 173.55 233.87 166.07 237.33 166.07 237.33 145.84 203.25 145.84 203.25 146.93"/><polygon class="cls-1" points="310.65 145.84 305.39 151.11 300.13 145.84 284.92 145.84 279.66 151.11 274.4 145.84 249.76 145.84 249.76 193.78 274.4 193.78 279.66 188.52 284.92 193.78 300.13 193.78 305.39 188.52 310.65 193.78 325.86 193.78 335.29 184.34 335.29 155.28 325.86 145.84 310.65 145.84"/><path class="cls-1" d="M658.05,346.44h-15.2l-5.26,5.26-5.27-5.26h-15.2l-5.26,5.26-5.26-5.26H572.88l-2.61,5.95-2.43-5.95h-18v7.05L548,346.44H530.72l-2.24,9-9-9h-15.2l-9.44,9.44v29.06l9.44,9.43h97.86V380.52h4.42l1.08-1.08v5.5l9.44,9.43h15.2l5.27-5.26,5.26,5.26h15.2l9.44-9.43V355.88ZM524.66,370.68h-9.55v-.55h9.69Z" transform="translate(-147.16 -200.6)"/><polygon class="cls-2" points="31.3 176.74 38.23 176.74 38.23 180.2 45.16 180.2 45.16 173.28 36.84 173.28 31.3 167.73 31.3 158.04 36.84 152.5 46.54 152.5 52.08 158.04 52.08 162.88 45.16 162.88 45.16 159.42 38.23 159.42 38.23 166.35 46.44 166.35 52.08 171.89 52.08 181.59 46.54 187.13 36.84 187.13 31.3 181.59 31.3 176.74"/><path class="cls-2" d="M204.19,387.72l8.66-34.63h6.92l8.66,34.63h-6.92l-1.74-6.92h-6.92l-1.73,6.92Zm12.12-20.78-1.73,6.93H218Z" transform="translate(-147.16 -200.6)"/><path class="cls-2" d="M238.92,387.72l-5.54-5.54V358.63l5.54-5.54h9.7l5.54,5.54v23.55l-5.54,5.54Zm1.39-6.92h6.92V360h-6.92Z" transform="translate(-147.16 -200.6)"/><polygon class="cls-2" points="139.65 176.74 139.65 180.2 146.58 180.2 146.58 152.5 153.5 152.5 153.5 181.59 147.96 187.13 138.27 187.13 132.72 181.59 132.72 176.74 139.65 176.74"/><path class="cls-2" d="M311.15,387.72l-5.54-5.54V358.63l5.54-5.54h9.7l5.54,5.54v23.55l-5.54,5.54Zm1.39-6.92h6.92V360h-6.92Z" transform="translate(-147.16 -200.6)"/><polygon class="cls-2" points="184.18 176.74 191.1 176.74 191.1 180.2 198.03 180.2 198.03 173.28 189.72 173.28 184.18 167.73 184.18 158.04 189.72 152.5 199.42 152.5 204.96 158.04 204.96 162.88 198.03 162.88 198.03 159.42 191.1 159.42 191.1 166.35 199.32 166.35 204.96 171.89 204.96 181.59 199.42 187.13 189.72 187.13 184.18 181.59 184.18 176.74"/><polygon class="cls-2" points="209.91 187.13 209.91 152.5 230.68 152.5 230.68 159.42 216.83 159.42 216.83 166.35 227.22 166.35 227.22 173.28 216.83 173.28 216.83 180.2 230.68 180.2 230.68 187.13 209.91 187.13"/><path class="cls-2" d="M403.57,387.72V353.09h15.24l5.54,5.54v23.55l-5.54,5.54Zm6.93-6.92h6.92V360H410.5Z" transform="translate(-147.16 -200.6)"/><path class="cls-2" d="M434.84,387.72l-5.54-5.54V358.63l5.54-5.54h9.7l5.54,5.54v23.55l-5.54,5.54Zm1.38-6.92h6.93V360h-6.93Z" transform="translate(-147.16 -200.6)"/><polygon class="cls-2" points="307.86 176.74 314.79 176.74 314.79 180.2 321.72 180.2 321.72 173.28 313.4 173.28 307.86 167.73 307.86 158.04 313.4 152.5 323.1 152.5 328.64 158.04 328.64 162.88 321.72 162.88 321.72 159.42 314.79 159.42 314.79 166.35 323 166.35 328.64 171.89 328.64 181.59 323.1 187.13 313.4 187.13 307.86 181.59 307.86 176.74"/><polygon class="cls-2" points="359.91 187.13 354.37 181.59 354.37 158.04 359.91 152.5 369.61 152.5 375.15 158.04 375.15 162.89 368.22 162.89 368.22 159.42 361.3 159.42 361.3 180.2 368.22 180.2 368.22 176.74 375.15 176.74 375.15 181.59 369.61 187.13 359.91 187.13"/><path class="cls-2" d="M527.26,387.72l8.65-34.63h6.93l8.66,34.63h-6.93l-1.73-6.92h-6.93l-1.73,6.92Zm12.12-20.78-1.73,6.93h3.46Z" transform="translate(-147.16 -200.6)"/><polygon class="cls-2" points="409.29 187.13 409.29 152.5 416.21 152.5 422.89 168.82 430.06 152.5 436.99 152.5 436.99 187.13 430.06 187.13 430.06 170.8 422.89 187.13 416.21 170.9 416.21 187.13 409.29 187.13"/><path class="cls-2" d="M588.6,387.72V353.09h15.24l5.55,5.54v9.7l-5.55,5.54h-8.31v13.85Zm6.93-20.87h6.93V360h-6.93Z" transform="translate(-147.16 -200.6)"/><path class="cls-2" d="M619.87,387.72l-5.54-5.54V358.63l5.54-5.54h9.7l5.54,5.54v23.55l-5.54,5.54Zm1.39-6.92h6.92V360h-6.92Z" transform="translate(-147.16 -200.6)"/><polygon class="cls-2" points="492.9 176.74 499.82 176.74 499.82 180.2 506.75 180.2 506.75 173.28 498.44 173.28 492.9 167.73 492.9 158.04 498.44 152.5 508.14 152.5 513.68 158.04 513.68 162.88 506.75 162.88 506.75 159.42 499.82 159.42 499.82 166.35 508.04 166.35 513.68 171.89 513.68 181.59 508.14 187.13 498.44 187.13 492.9 181.59 492.9 176.74"/></svg>